<svg xmlns="http://www.w3.org/2000/svg" viewBox="0 0 338.58 224.93"><defs><style>.cls-1{fill:#ef3b39;}.cls-2{fill:#f1f2f2;}.cls-3,.cls-4{fill:#f9a73b;stroke:#f1f2f2;stroke-miterlimit:10;}.cls-3{stroke-width:5px;}.cls-4{stroke-width:4px;opacity:0.96;}</style></defs><g id="Layer_2" data-name="Layer 2"><g id="Layer_1-2" data-name="Layer 1"><path class="cls-1" d="M298.56,11.6c8.26,87.37-34.49,2.25-45.5,56.79,0,0-7.52,6.77-10.91-.75-11.33-28.1-26.1,14-40.24,11.28,1.64-22.14-63.1-26-63.93-3.77-12.55,3.47-13-17.91-21.06-21.43-10.9-.67-11.35,18.7-26.71,15.8-13.68-8.4-3.51-43-25.75-35.36C32.72,74.86,51.87,3.12,30.8.88c-19.56.5-27.74,44.71-28,54.34-19.11,53.38,118,33.56,127.87,35.36-1.55,2.34-42.26,29.36-17.51,36.48,5.64.75,17.51-16.55,17.51-16.55s5.58,5.44,3.92,7.52c-7.52,9.4-17.29,30-17.29,30-22.43,59.39,56.8,102,86,56,9.67-15.2,13-36.13,8.73-54.45-3.87-16.58-14.94-31.36-14.94-31.36l.73-3.23a39.79,39.79,0,0,1,2.88-4.69s11.87,17.3,17.52,16.55c21.64-6.22-6.78-27.66-15.29-34.52l.34-1.53s85.05,21,117.44,1.33C357.57,77.27,328.15-20.22,298.56,11.6Z" transform="translate(0)"/><path class="cls-2" d="M298.7,11.65c.4,3.9.7,7.92.9,11.92s.27,8,.09,12a60.24,60.24,0,0,1-.55,6,29.26,29.26,0,0,1-1.4,5.88,14.75,14.75,0,0,1-1.35,2.73,7.93,7.93,0,0,1-2.07,2.25,7.19,7.19,0,0,1-2.82,1.23,10.16,10.16,0,0,1-3.06.11,28.7,28.7,0,0,1-5.89-1.39l-5.69-1.93A36.45,36.45,0,0,0,271.08,49a14.17,14.17,0,0,0-5.84.22,11,11,0,0,0-5,3A18.86,18.86,0,0,0,257,57.1a34.22,34.22,0,0,0-2.14,5.55c-.6,1.9-1,3.85-1.44,5.8l0,.11-.07.07a13.73,13.73,0,0,1-3.58,2.24,6.55,6.55,0,0,1-4.24.45,5.48,5.48,0,0,1-3.22-2.8c-.73-1.25-1.11-2.52-1.78-3.73-1.23-2.39-2.82-4.75-5.15-6a5.78,5.78,0,0,0-3.78-.33,10.7,10.7,0,0,0-3.59,1.68,41.53,41.53,0,0,0-6.12,5.39l-5.71,6A43.11,43.11,0,0,1,209.86,77a16.75,16.75,0,0,1-3.75,2,9.24,9.24,0,0,1-4.28.38l-.39-.06,0-.41a10.53,10.53,0,0,0-.75-4.64,13,13,0,0,0-2.66-3.94,25.46,25.46,0,0,0-8.1-5.25,62.64,62.64,0,0,0-38.52-2.24,25.13,25.13,0,0,0-8.61,4.29,12.76,12.76,0,0,0-3.05,3.59,10.3,10.3,0,0,0-1.21,4.48l0,.43-.41.11a9.69,9.69,0,0,1-4.29.26,8.23,8.23,0,0,1-3.88-1.9,22,22,0,0,1-4.79-6.79c-1.23-2.45-2.29-4.94-3.54-7.29s-2.75-4.66-5-5.69l.22,0a7.29,7.29,0,0,0-3.68.73,10.84,10.84,0,0,0-3.09,2.34c-1.83,1.92-3.34,4.23-5.09,6.4a18.73,18.73,0,0,1-6.44,5.52,12.33,12.33,0,0,1-4.21,1.11,17.6,17.6,0,0,1-4.29-.25l-.12,0-.12-.07a13.75,13.75,0,0,1-4.51-4.75,26.86,26.86,0,0,1-2.51-5.91c-1.23-4.08-1.88-8.23-2.75-12.29a48.88,48.88,0,0,0-1.57-6,14.22,14.22,0,0,0-2.87-5.14,7,7,0,0,0-5.07-2.19,16.87,16.87,0,0,0-5.85,1l.37-.25a86.8,86.8,0,0,1-5.95,7,34,34,0,0,1-3.4,3.15,13.38,13.38,0,0,1-4.16,2.42,5.14,5.14,0,0,1-2.65.14,4.6,4.6,0,0,1-2.32-1.4,11.64,11.64,0,0,1-2.22-4.32,57.41,57.41,0,0,1-1.74-9c-.79-6-1.29-12-2.58-17.88a29.65,29.65,0,0,0-2.94-8.26,11,11,0,0,0-2.69-3.19A7.65,7.65,0,0,0,30.7,1.76h.12a13.14,13.14,0,0,0-7.1,2.47,24.29,24.29,0,0,0-5.53,5.51,58.62,58.62,0,0,0-7.36,14.16,118,118,0,0,0-4.6,15.47C5.64,42,5.11,44.65,4.68,47.3a66,66,0,0,0-.9,8v.16l0,.14A28.11,28.11,0,0,0,2,64.5a17.89,17.89,0,0,0,2.09,8.62,21.77,21.77,0,0,0,6.05,6.64,37.63,37.63,0,0,0,8.07,4.43,84.29,84.29,0,0,0,18,4.87,177.55,177.55,0,0,0,18.73,2,375,375,0,0,0,37.79.1c6.31-.26,12.61-.62,18.91-1l9.47-.6c1.58-.09,3.16-.18,4.76-.24.8,0,1.6-.06,2.41-.06a16.87,16.87,0,0,1,2.58.13l1.9.29-1.13,1.51a4.3,4.3,0,0,1-.75.8l-.64.55-1.26,1-2.5,2c-1.66,1.33-3.3,2.67-4.91,4a94.31,94.31,0,0,0-9.13,8.73,38.23,38.23,0,0,0-3.78,4.91,13.74,13.74,0,0,0-2.2,5.38,5,5,0,0,0,1.8,4.63,14.06,14.06,0,0,0,5.22,2.54l-.18,0a4.13,4.13,0,0,0,2.16-.65,15.33,15.33,0,0,0,2.33-1.63,43.22,43.22,0,0,0,4.27-4.19c1.35-1.5,2.64-3.07,3.9-4.67s2.47-3.25,3.61-4.9l.9-1.29,1.09,1.1a24.71,24.71,0,0,1,3.64,4.5,10.13,10.13,0,0,1,.69,1.44,4.3,4.3,0,0,1,.28,2,2.68,2.68,0,0,1-.45,1.21,2.79,2.79,0,0,1-.26.35l-.2.27-.8,1.06a106.67,106.67,0,0,0-5.83,9q-2.73,4.68-5.24,9.5-1.26,2.4-2.48,4.83l-1.21,2.43-.59,1.22-.3.61-.14.3,0,.07a1,1,0,0,0,.1-.56,1.36,1.36,0,0,0-.47-.92,1.29,1.29,0,0,0-1-.32,1.16,1.16,0,0,0-.64.23l1.93,1.7c-3.34,9.19-4.8,19.16-3,28.77.1.6.17,1.21.3,1.8l.45,1.77.46,1.76c.07.3.14.59.23.89l.3.85,1.23,3.44,1.53,3.31a57,57,0,0,0,8.18,12.06,59.49,59.49,0,0,0,11.05,9.53c1,.64,2,1.38,3.09,1.95l3.22,1.75,3.33,1.5c1.11.51,2.28.85,3.42,1.28a51.23,51.23,0,0,0,14.26,2.74,40.15,40.15,0,0,0,14.29-1.9,38.53,38.53,0,0,0,12.58-6.88,43.92,43.92,0,0,0,9.31-11,69.23,69.23,0,0,0,9.13-27.69,70.66,70.66,0,0,0-2.6-29.07,83.06,83.06,0,0,0-5.7-13.58A103,103,0,0,0,196,119.14l-.4-.57.14-.64.74-3.23,0-.18.08-.15c.45-.87.93-1.7,1.43-2.51s1-1.57,1.59-2.37l1.19-1.67,1.18,1.7c1.14,1.65,2.37,3.3,3.61,4.89s2.54,3.17,3.89,4.67a42.92,42.92,0,0,0,4.25,4.18,16.07,16.07,0,0,0,2.3,1.62,4.05,4.05,0,0,0,2.08.63l-.2,0a15,15,0,0,0,4.92-2.32,5.88,5.88,0,0,0,1.57-1.83,4.74,4.74,0,0,0,.47-2.28,10.93,10.93,0,0,0-1.66-5,32.16,32.16,0,0,0-3.36-4.71,81.86,81.86,0,0,0-8.39-8.37c-3-2.64-6.1-5.13-9.25-7.66l-.62-.49.18-.78.35-1.52.28-1.26,1.26.3c9.62,2.31,19.41,4.19,29.2,5.77s19.67,2.79,29.57,3.51c4.94.36,9.9.61,14.85.64s9.91-.07,14.83-.52a99.35,99.35,0,0,0,14.61-2.27,48.56,48.56,0,0,0,13.63-5.29l.07,0,.06,0a22.73,22.73,0,0,0,10.74-9.1,38.23,38.23,0,0,0,5.08-13.52,75.11,75.11,0,0,0-.92-29.18,79.1,79.1,0,0,0-4.39-14,50.45,50.45,0,0,0-7.4-12.65A25.7,25.7,0,0,0,318.18,8a14.17,14.17,0,0,0-6.77-2.42,12.85,12.85,0,0,0-7,1.62A23.18,23.18,0,0,0,298.7,11.65Zm-.28-.1,1.33-1.38c.46-.43.93-.83,1.4-1.25s1-.76,1.48-1.13,1-.69,1.59-1a13.33,13.33,0,0,1,7.22-1.76,14.6,14.6,0,0,1,7.06,2.42,26.48,26.48,0,0,1,5.57,5,51.54,51.54,0,0,1,7.68,12.74,80.19,80.19,0,0,1,4.63,14.15A76.06,76.06,0,0,1,337.66,69a39.78,39.78,0,0,1-5.16,14.1A24.39,24.39,0,0,1,321.07,93l.12-.06a50.69,50.69,0,0,1-14.07,5.61A103.15,103.15,0,0,1,292.25,101c-5,.49-10,.63-15,.64s-10-.18-15-.5c-10-.63-19.92-1.84-29.79-3.36S212.77,94.36,203,92.07l1.54-.95-.34,1.53-.44-1.27c3.13,2.49,6.32,5,9.37,7.68a85.25,85.25,0,0,1,8.71,8.61,35.32,35.32,0,0,1,3.65,5.09,13.37,13.37,0,0,1,2.05,6.31,7.56,7.56,0,0,1-.74,3.56,8.41,8.41,0,0,1-2.29,2.74,17.33,17.33,0,0,1-5.88,2.86l-.11,0h-.09a6.44,6.44,0,0,1-3.79-.94,18.56,18.56,0,0,1-2.75-1.9,45.84,45.84,0,0,1-4.57-4.45c-1.41-1.55-2.75-3.16-4-4.79s-2.53-3.29-3.74-5l2.37,0c-.5.7-1,1.46-1.46,2.2s-.9,1.52-1.29,2.29l.12-.34-.72,3.23-.26-1.21c1.54,2.1,2.9,4.2,4.23,6.37s2.58,4.37,3.74,6.63a86.82,86.82,0,0,1,5.89,14.06,73.66,73.66,0,0,1,2.71,30.3,72.23,72.23,0,0,1-9.54,28.9,47,47,0,0,1-10,11.78,41.45,41.45,0,0,1-13.57,7.43,43.08,43.08,0,0,1-15.32,2A54.41,54.41,0,0,1,151.37,222c-1.19-.46-2.43-.82-3.6-1.36L144.26,219l-3.37-1.84c-1.14-.6-2.17-1.37-3.26-2a62.12,62.12,0,0,1-11.61-10,59.9,59.9,0,0,1-8.57-12.74l-1.61-3.51-1.28-3.63-.32-.91c-.1-.31-.17-.63-.25-.94l-.47-1.87-.47-1.87c-.13-.62-.21-1.26-.31-1.9-1.83-10.17-.24-20.67,3.27-30.22l1.93,1.71a2.24,2.24,0,0,1-.57.07,1.38,1.38,0,0,1-.94-.39,1.41,1.41,0,0,1-.43-1,1.59,1.59,0,0,1,.16-.71l0-.09.15-.3.3-.62.6-1.23,1.23-2.45c.83-1.63,1.66-3.25,2.52-4.87,1.71-3.23,3.47-6.43,5.33-9.59a109.3,109.3,0,0,1,6-9.26l.85-1.11.21-.28c.06-.08.18-.23.14-.2s0,0,0-.06a3.59,3.59,0,0,0-.63-1.73,21.29,21.29,0,0,0-3.19-4l2-.2c-1.21,1.73-2.45,3.38-3.74,5s-2.62,3.24-4,4.79a43.37,43.37,0,0,1-4.55,4.43,17.54,17.54,0,0,1-2.72,1.9,6.4,6.4,0,0,1-3.71.92h-.08l-.1,0a16.24,16.24,0,0,1-6.17-3.09,7.41,7.41,0,0,1-2.61-6.8,16,16,0,0,1,2.58-6.39,40.77,40.77,0,0,1,4-5.22A98.77,98.77,0,0,1,120,97.84c1.64-1.39,3.31-2.75,5-4.08l2.5-2,1.23-1,.57-.5c.16-.13.4-.38.36-.34l.78,1.8a17.64,17.64,0,0,0-2.15-.1l-2.33.05c-1.57.06-3.14.15-4.71.23l-9.46.57c-6.32.39-12.64.73-19,1a379.71,379.71,0,0,1-38-.21,177.85,177.85,0,0,1-18.94-2.13,86.08,86.08,0,0,1-18.48-5,39.41,39.41,0,0,1-8.49-4.7,23.54,23.54,0,0,1-6.59-7.3A19.79,19.79,0,0,1,0,64.48,30.1,30.1,0,0,1,1.89,54.9l-.06.3A71.34,71.34,0,0,1,2.78,47c.45-2.7,1-5.38,1.6-8A120.06,120.06,0,0,1,9.1,23.25,60.36,60.36,0,0,1,16.75,8.66a26.08,26.08,0,0,1,6-5.9A15.1,15.1,0,0,1,30.77,0h.12a9.22,9.22,0,0,1,4.6,1.83,12.41,12.41,0,0,1,3.13,3.7,30.86,30.86,0,0,1,3.11,8.77c1.32,6,1.79,12.06,2.56,18A57.1,57.1,0,0,0,46,41.11a10.11,10.11,0,0,0,1.85,3.71,3,3,0,0,0,3.3.81,11.85,11.85,0,0,0,3.63-2.13,31.74,31.74,0,0,0,3.26-3,87.11,87.11,0,0,0,5.85-6.82l.15-.19.21-.07a18.45,18.45,0,0,1,6.43-1.1A8.56,8.56,0,0,1,76.74,35a15.82,15.82,0,0,1,3.2,5.71,52.14,52.14,0,0,1,1.6,6.16C82.4,51,83,55.1,84.21,59a25.41,25.41,0,0,0,2.35,5.6,12.29,12.29,0,0,0,4,4.27l-.24-.09A12.44,12.44,0,0,0,98,68.1,17.46,17.46,0,0,0,104,63c1.71-2.1,3.23-4.42,5.2-6.47a12.24,12.24,0,0,1,3.46-2.6,8.63,8.63,0,0,1,4.32-.84h.13l.09.05a9.19,9.19,0,0,1,3.34,2.75,23.47,23.47,0,0,1,2.24,3.52c1.28,2.43,2.34,4.93,3.53,7.33a20.81,20.81,0,0,0,4.47,6.43,6.91,6.91,0,0,0,3.32,1.65,8.54,8.54,0,0,0,3.75-.22l-.43.54a11.66,11.66,0,0,1,1.38-5,14,14,0,0,1,3.34-3.91,26,26,0,0,1,9-4.46,63.59,63.59,0,0,1,39.22,2.41,26.12,26.12,0,0,1,8.38,5.49,14.11,14.11,0,0,1,2.84,4.23,11.53,11.53,0,0,1,.79,5.06l-.36-.47a8.28,8.28,0,0,0,3.85-.34,15.53,15.53,0,0,0,3.54-1.85,43.84,43.84,0,0,0,6.15-5.36L221.26,65a41.47,41.47,0,0,1,6.26-5.47,11.51,11.51,0,0,1,3.84-1.77,6.55,6.55,0,0,1,4.27.39c2.6,1.38,4.2,3.87,5.46,6.31.66,1.2,1.09,2.59,1.75,3.72a4.85,4.85,0,0,0,2.81,2.48,5.91,5.91,0,0,0,3.8-.41,13.37,13.37,0,0,0,3.39-2.11l-.1.17c.43-2,.87-3.93,1.48-5.85a34,34,0,0,1,2.2-5.64,19.63,19.63,0,0,1,3.44-5,11.57,11.57,0,0,1,5.23-3.11,15,15,0,0,1,6.07-.22A36.46,36.46,0,0,1,277,50l5.69,1.95a27.73,27.73,0,0,0,5.77,1.39,7.81,7.81,0,0,0,5.57-1.23A7.43,7.43,0,0,0,296,50a14.47,14.47,0,0,0,1.32-2.64,29.29,29.29,0,0,0,1.4-5.79,59.19,59.19,0,0,0,.56-6c.2-4,.14-8,0-12S298.76,15.63,298.42,11.55Z" transform="translate(0)"/><polygon class="cls-3" points="136.61 155.75 136.61 140.49 154.37 140.49 154.44 191.94 177.07 191.94 177.71 140.3 194.28 140.99 194.28 153.67 187.62 153.67 187.62 192.64 180.62 202.61 152.97 202.61 143.05 191.12 142.54 156 136.61 155.75"/><polygon class="cls-4" points="155.13 49.16 131.04 49.16 131.04 66.08 135.54 66.08 152.23 118.36 160.63 118.22 167.55 99.13 177.07 118.36 183.53 118.68 194.54 66.1 201.28 66.1 201.28 49.07 178.37 49.07 178.31 66.23 184.48 66.23 177.72 97.57 171.2 82.64 164.52 82.5 159.97 96.14 151.76 65.93 154.85 65.93 155.13 49.16"/></g></g></svg>